<?xml version="1.0" encoding="UTF-8"?>
<svg id="Layer_2" data-name="Layer 2" xmlns="http://www.w3.org/2000/svg" xmlns:xlink="http://www.w3.org/1999/xlink" viewBox="0 0 111.35 111.14">
  <defs>
    <style>
      .cls-1 {
        fill: url(#linear-gradient);
      }
    </style>
    <linearGradient id="linear-gradient" x1="25.75" y1="98.05" x2="77.99" y2="39.55" gradientUnits="userSpaceOnUse">
      <stop offset="0" stop-color="#a53583"/>
      <stop offset="1" stop-color="#e0813f"/>
    </linearGradient>
  </defs>
  <g id="Layer_1-2" data-name="Layer 1">
    <path class="cls-1" d="M102.04,67.26c-4.96-.52-9.31,2.42-10.92,6.71-.38,1.02-1.37,1.69-2.47,1.69h-25.14c-1.18,0-2.24-.77-2.55-1.9-.33-1.21-.81-2.36-1.42-3.43-.59-1.02-.39-2.32.45-3.15l14.17-14.17c.71-.71,1.77-.96,2.72-.64,1.12.39,2.36.53,3.64.35,3.62-.5,6.46-3.52,6.75-7.16.39-4.93-3.78-9-8.74-8.46-3.6.4-6.5,3.29-6.92,6.88-.14,1.23,0,2.41.37,3.48.33.96.08,2.01-.63,2.73l-14.17,14.17c-.83.83-2.13,1.03-3.15.45-1.07-.61-2.22-1.09-3.43-1.42-1.14-.31-1.9-1.37-1.9-2.55V21.05c0-1.08.65-2.05,1.65-2.45,3.7-1.51,6.25-5.24,5.99-9.54C56.04,4.24,52.12.31,47.3.02c-5.61-.34-10.26,4.1-10.26,9.63,0,4.04,2.48,7.5,6,8.94,1,.41,1.67,1.37,1.67,2.46v39.8c0,1.18-.78,2.23-1.92,2.55-5.02,1.37-8.98,5.33-10.35,10.35-.31,1.14-1.36,1.92-2.55,1.92h-12.16c-1.02,0-1.95-.59-2.39-1.52-1.43-2.97-4.62-4.93-8.23-4.52-3.69.43-6.66,3.41-7.07,7.1-.54,4.87,3.26,9,8.03,9,3.2,0,5.96-1.87,7.27-4.57.44-.92,1.37-1.52,2.39-1.52h12.17c1.2,0,2.23.82,2.55,1.98,1.74,6.23,7.45,10.81,14.24,10.81,2.64,0,5.12-.7,7.27-1.91,1.04-.59,2.34-.45,3.18.4l6.06,6.06c.74.74.96,1.83.6,2.81-.33.91-.52,1.88-.52,2.91,0,4.98,4.31,8.96,9.41,8.4,3.87-.43,7.01-3.56,7.43-7.43.56-5.1-3.41-9.42-8.39-9.42-1.02,0-2,.18-2.91.52-.98.36-2.08.14-2.82-.6l-6.04-6.04c-.83-.83-1.03-2.13-.45-3.15.61-1.07,1.09-2.22,1.42-3.43.31-1.14,1.37-1.9,2.55-1.9h25.14c1.1,0,2.08.68,2.47,1.7,1.49,3.95,5.31,6.76,9.78,6.76,5.99,0,10.81-5.04,10.43-11.12-.31-5.03-4.28-9.2-9.3-9.72Z"/>
  </g>
</svg>