<?xml version="1.0" encoding="UTF-8"?>
<svg id="Layer_2" data-name="Layer 2" xmlns="http://www.w3.org/2000/svg" viewBox="0 0 928.34 926.57">
  <defs>
    <style>
      .cls-1 {
        fill: #90189c;
      }
    </style>
  </defs>
  <g id="Layer_1-2" data-name="Layer 1">
    <path class="cls-1" d="M850.66,560.73c-41.34-4.35-77.6,20.22-91.03,55.98-3.2,8.52-11.46,14.08-20.57,14.08h-209.61c-9.81,0-18.67-6.4-21.24-15.87-2.75-10.11-6.76-19.71-11.85-28.61-4.88-8.54-3.24-19.32,3.72-26.28l118.14-118.14c5.93-5.93,14.72-8.04,22.64-5.3,9.35,3.24,19.66,4.44,30.39,2.94,30.16-4.2,53.88-29.32,56.27-59.68,3.23-41.12-31.49-75.07-72.84-70.52-29.99,3.3-54.2,27.41-57.7,57.37-1.2,10.28,0,20.07,3.07,29.02,2.73,7.96.69,16.78-5.27,22.73l-118.12,118.12c-6.95,6.95-17.73,8.6-26.26,3.73-8.9-5.08-18.5-9.09-28.62-11.84-9.47-2.58-15.86-11.42-15.86-21.23V175.47c0-8.99,5.46-17.05,13.78-20.45,30.83-12.56,52.11-43.71,49.96-79.54C467.22,35.31,434.52,2.59,394.35.15c-46.77-2.83-85.52,34.2-85.52,80.31,0,33.66,20.65,62.5,50,74.51,8.37,3.43,13.93,11.46,13.93,20.51v331.79c0,9.85-6.5,18.63-16,21.22-41.86,11.44-74.84,44.42-86.29,86.3-2.6,9.5-11.37,16-21.22,16h-101.35c-8.54,0-16.24-4.96-19.95-12.65-11.94-24.78-38.54-41.14-68.58-37.67-30.74,3.55-55.52,28.45-58.92,59.21-4.5,40.64,27.21,75,66.93,75,26.7,0,49.71-15.55,60.58-38.1,3.71-7.69,11.41-12.65,19.95-12.65h101.45c10.04,0,18.58,6.87,21.27,16.54,14.47,51.97,62.12,90.1,118.72,90.1,22.02,0,42.7-5.8,60.6-15.94,8.67-4.91,19.5-3.75,26.54,3.3l50.49,50.52c6.14,6.15,8.02,15.29,5.01,23.44-2.79,7.55-4.33,15.7-4.33,24.23,0,41.51,35.92,74.68,78.43,70.01,32.3-3.55,58.41-29.66,61.98-61.96,4.7-42.53-28.43-78.49-69.96-78.49-8.52,0-16.67,1.54-24.22,4.34-8.16,3.03-17.32,1.15-23.47-5.01l-50.33-50.33c-6.95-6.95-8.6-17.74-3.72-26.28,5.09-8.9,9.11-18.5,11.86-28.61,2.58-9.47,11.43-15.86,21.24-15.86h209.63c9.16,0,17.38,5.64,20.61,14.21,12.43,32.92,44.24,56.35,81.53,56.35,49.97,0,90.1-42.04,86.96-92.7-2.6-41.94-35.72-76.67-77.51-81.07Z"/>
  </g>
</svg>