<?xml version="1.0" encoding="UTF-8"?>
<svg id="Layer_2" data-name="Layer 2" xmlns="http://www.w3.org/2000/svg" xmlns:xlink="http://www.w3.org/1999/xlink" viewBox="0 0 118.25 89.17">
  <defs>
    <style>
      .cls-1 {
        letter-spacing: 0em;
      }

      .cls-2 {
        fill: url(#linear-gradient);
      }

      .cls-3 {
        letter-spacing: -.06em;
      }

      .cls-4 {
        fill: #650772;
        font-family: HaasGrotDispRTrial-55Roman, 'Haas Grot Disp R Trial';
        font-size: 21.18px;
      }
    </style>
    <linearGradient id="linear-gradient" x1="42.75" y1="53.65" x2="71.34" y2="21.64" gradientUnits="userSpaceOnUse">
      <stop offset="0" stop-color="#a53583"/>
      <stop offset="1" stop-color="#e0813f"/>
    </linearGradient>
  </defs>
  <g id="Layer_1-2" data-name="Layer 1">
    <path class="cls-2" d="M84.5,36.8c-2.71-.29-5.09,1.33-5.97,3.67-.21.56-.75.92-1.35.92h-13.76c-.64,0-1.23-.42-1.39-1.04-.18-.66-.44-1.29-.78-1.88-.32-.56-.21-1.27.24-1.72l7.75-7.75c.39-.39.97-.53,1.49-.35.61.21,1.29.29,1.99.19,1.98-.28,3.54-1.92,3.69-3.92.21-2.7-2.07-4.93-4.78-4.63-1.97.22-3.56,1.8-3.79,3.77-.08.67,0,1.32.2,1.9.18.52.05,1.1-.35,1.49l-7.75,7.75c-.46.46-1.16.56-1.72.24-.58-.33-1.21-.6-1.88-.78-.62-.17-1.04-.75-1.04-1.39V11.52c0-.59.36-1.12.9-1.34,2.02-.82,3.42-2.87,3.28-5.22-.16-2.64-2.3-4.78-4.94-4.94-3.07-.19-5.61,2.24-5.61,5.27,0,2.21,1.36,4.1,3.28,4.89.55.22.91.75.91,1.35v21.78c0,.65-.43,1.22-1.05,1.39-2.75.75-4.91,2.92-5.66,5.66-.17.62-.75,1.05-1.39,1.05h-6.65c-.56,0-1.07-.33-1.31-.83-.78-1.63-2.53-2.7-4.5-2.47-2.02.23-3.64,1.87-3.87,3.89-.3,2.67,1.79,4.92,4.39,4.92,1.75,0,3.26-1.02,3.98-2.5.24-.5.75-.83,1.31-.83h6.66c.66,0,1.22.45,1.4,1.09.95,3.41,4.08,5.91,7.79,5.91,1.45,0,2.8-.38,3.98-1.05.57-.32,1.28-.25,1.74.22l3.31,3.32c.4.4.53,1,.33,1.54-.18.5-.28,1.03-.28,1.59,0,2.72,2.36,4.9,5.15,4.6,2.12-.23,3.83-1.95,4.07-4.07.31-2.79-1.87-5.15-4.59-5.15-.56,0-1.09.1-1.59.28-.54.2-1.14.08-1.54-.33l-3.3-3.3c-.46-.46-.56-1.16-.24-1.72.33-.58.6-1.21.78-1.88.17-.62.75-1.04,1.39-1.04h13.76c.6,0,1.14.37,1.35.93.82,2.16,2.9,3.7,5.35,3.7,3.28,0,5.91-2.76,5.71-6.08-.17-2.75-2.34-5.03-5.09-5.32Z"/>
    <text class="cls-4" transform="translate(0 85.52)"><tspan x="0" y="0">Digital </tspan><tspan class="cls-3" x="58.92" y="0">V</tspan><tspan x="70.65" y="0">ec</tspan><tspan class="cls-1" x="92.93" y="0">t</tspan><tspan x="99.32" y="0">or</tspan></text>
  </g>
</svg>